<svg id="lz2o6qm740391943" viewBox="0 0 360 266" xmlns="http://www.w3.org/2000/svg" xmlns:xlink="http://www.w3.org/1999/xlink"><g id="lz2o6qm740391943_translate"><g transform="matrix(1,0,0,1,0,0)"><g id="lz2o6qm740391943" opacity="1" style="mix-blend-mode:normal"><g><defs><clipPath id="lz2o6qm740391943_clipPath" x="-50%" y="-50%" width="200%" height="200%"><path d="M0.01,0h359.98c0.00552,0 0.01,0.00448 0.01,0.01v265.98c0,0.00552 -0.00448,0.01 -0.01,0.01h-359.98c-0.00552,0 -0.01,-0.00448 -0.01,-0.01v-265.98c0,-0.00552 0.00448,-0.01 0.01,-0.01z" fill="white" clip-rule="nonzero"></path></clipPath></defs><g clip-path="url(#lz2o6qm740391943_clipPath)"><g id="lz2o6qm763817662_translate"><g transform="matrix(1,0,0,1,32,69.9999)"><g id="lz2o6qm763817662" opacity="1" style="mix-blend-mode:normal"><g><g><g id="lz2o6qm807178211_translate"><g transform="matrix(1,0,0,1,2.4266,2.426)"><g id="lz2o6qm807178211" opacity="1" style="mix-blend-mode:normal"><g><g><path id="lz2o6qm807178211_fill_path" d="M11.95735,18.504c-2.8746,13.50542 -8.89161,41.49189 -11.54563,53.88797c-0.37729,1.76219 -1.14246,5.89208 1.36295,10.33439c2.09121,3.7079 14.9246,25.86399 18.66192,32.30861c1.7676,3.04805 6.02971,6.31228 11.67831,5.72656c4.20738,-0.43628 6.86632,-0.69467 15.24035,-1.44167c4.13132,-0.49348 7.27987,-2.48756 9.43255,-6.09286c2.13535,2.70571 5.80753,4.90295 10.00674,4.63982c4.5743,-0.28664 12.18797,-0.71071 15.93648,-0.90246c2.46397,-0.12605 4.71709,-0.67652 7.1696,-2.48379c1.41659,0.88787 3.60466,1.96797 6.91957,1.85486c4.4768,-0.15276 9.99728,-0.35118 16.39348,-0.50426c6.46511,-0.15472 11.33178,-5.11905 11.92137,-11.00969c0.68544,6.03583 6.03275,10.69721 11.90397,10.64339c4.93716,-0.04525 12.44946,-0.0055 17.20907,-0.0055c3.21042,0.10313 10.17091,-1.24471 12.37844,-9.42602c11.01403,11.03578 28.63428,14.57152 41.71347,7.92224c2.28585,2.08681 4.45572,3.20665 8.3554,3.43008c4.36692,0.25019 9.15054,0.53728 14.22985,0.89793c1.94073,0.13779 4.39409,-0.30539 6.5745,-1.55239c1.48137,1.26709 4.14188,2.33898 5.80608,2.48869c2.94381,0.26481 10.19827,0.90304 15.70552,1.46861c5.50725,0.56558 9.86234,-2.51 11.72743,-5.73875c2.43361,-4.21294 13.56161,-23.47971 18.67937,-32.36127c2.0881,-3.62378 1.87217,-7.61105 1.45741,-9.55515c-1.46533,-6.86853 -8.98864,-41.79196 -11.79505,-54.71317c-1.69318,-7.79568 -7.79137,-10.49149 -11.56917,-11.03063c-3.77781,-0.53913 -11.53664,-1.45395 -16.60514,-2.00534c-2.69054,-0.2927 -5.11401,0.06951 -7.68598,1.21829c-2.25413,-1.60818 -4.33597,-2.40674 -7.20125,-2.67048c-3.08255,-0.28374 -7.32924,-0.636 -14.97924,-1.20275c-3.10738,-0.23021 -6.52613,0.5376 -9.48309,2.72956c-15.56029,-8.3413 -29.89604,-5.04365 -35.79859,-2.31611c-2.49662,-1.87419 -5.24153,-2.75098 -8.03714,-2.81856c-34.604,-0.83649 -96.82115,0.48437 -144.01691,7.10829c-5.65668,0.79391 -10.42856,4.97903 -11.74663,11.17156z" fill-rule="nonzero" fill="rgb(23, 37, 84)" fill-opacity="1" style="mix-blend-mode:normal"></path></g></g></g></g></g><g id="lz2o6qmf39617303_translate"><g transform="matrix(1,0,0,1,0,0)"><g id="lz2o6qmf39617303" opacity="1" style="mix-blend-mode:normal"><g><g><path id="lz2o6qmf39617303_fill_path" d="M50.03323,124.15951l-0.03615,0.00322c-8.36762,0.74644 -11.01405,1.00369 -15.20569,1.43833c-6.75657,0.7006 -11.86551,-3.19475 -14.0274,-6.9227c-3.73136,-6.43436 -16.57583,-28.60945 -18.67637,-32.3339c-2.95586,-5.241 -2.03236,-10.11807 -1.62211,-12.03421c0.88842,-4.14955 2.15314,-10.04354 3.55054,-16.55585c2.77869,-12.94958 6.08199,-28.34403 7.99448,-37.32929c1.53146,-7.19509 7.12087,-12.13419 13.78249,-13.06915c47.3753,-6.64912 109.73647,-7.96937 144.41278,-7.13113c2.84816,0.06885 5.65796,0.8578 8.25114,2.48852c6.81489,-2.71428 20.50034,-5.16203 35.36801,2.25835c3.15247,-1.90929 6.63393,-2.57191 9.82031,-2.33585c7.65656,0.56723 11.91932,0.9207 15.02238,1.20633c2.81839,0.25943 5.04643,0.99332 7.25599,2.35749c2.52197,-0.91832 5.00127,-1.19174 7.67125,-0.90128c5.07356,0.55194 12.86569,1.47032 16.6855,2.01545c4.41369,0.62988 11.61948,3.81113 13.59735,12.91757c2.80689,12.92331 10.33084,47.84976 11.79693,54.72192c0.48903,2.29217 0.76205,6.95135 -1.72803,11.27271c-5.11855,8.88292 -16.24727,28.15095 -18.68066,32.36353c-2.28602,3.95745 -7.50917,7.61312 -14.07621,6.9387c-4.79281,-0.4922 -10.9175,-1.03998 -14.35933,-1.34781c-0.49905,-0.04464 -0.9417,-0.08422 -1.31569,-0.11786c-1.16454,-0.10475 -2.49884,-0.50234 -3.69478,-1.00529c-0.70476,-0.29638 -1.43505,-0.66023 -2.11849,-1.08143c-2.22071,0.9549 -4.55284,1.2939 -6.52178,1.15409c-5.06324,-0.3595 -9.83428,-0.64586 -14.1968,-0.89581c-2.16002,-0.12375 -3.96992,-0.50386 -5.60684,-1.21147c-1.10595,-0.47809 -2.0748,-1.08074 -2.97832,-1.77853c-12.87484,5.73616 -29.09805,2.7642 -40.37492,-6.61721c-1.43925,2.72865 -3.45952,4.57804 -5.60236,5.77183c-2.86597,1.59666 -5.84544,1.96882 -7.78307,1.91307c-1.42563,-0.00006 -3.08801,-0.0036 -4.84947,-0.00735c-4.15142,-0.00884 -8.85283,-0.01884 -12.3004,0.01276c-4.75338,0.04356 -9.18242,-2.43652 -11.847,-6.25169c-2.51503,3.83445 -6.80708,6.4945 -11.94254,6.6174c-5.64899,0.13518 -10.61249,0.3058 -14.78614,0.44925c-0.54089,0.0186 -1.06852,0.03674 -1.58266,0.05429c-2.99297,0.10212 -5.248,-0.6242 -6.89391,-1.43896c-2.4289,1.4521 -4.76077,1.94371 -7.15406,2.06613c-3.74121,0.19138 -11.34541,0.61492 -15.9087,0.90088c-3.88321,0.24333 -7.3368,-1.22312 -9.8834,-3.33308c-2.42133,2.72925 -5.59856,4.3173 -9.41986,4.77374zM57.7491,117.68626c0.53092,-0.60927 1.01928,-1.28662 1.46495,-2.03303c0.50041,0.63406 1.0852,1.24019 1.7414,1.79329c2.14399,1.80711 5.05018,3.04799 8.26533,2.84654c4.5743,-0.28664 12.18797,-0.71071 15.93648,-0.90246c2.46398,-0.12605 4.7171,-0.67652 7.1696,-2.48379c1.41659,0.88787 3.60467,1.96797 6.91957,1.85486c0.51387,-0.01754 1.04148,-0.03568 1.5826,-0.05427c4.17307,-0.14345 9.14887,-0.31448 14.81089,-0.44998c4.76949,-0.11415 8.66903,-2.84587 10.62317,-6.63603c0.69473,-1.34747 1.14357,-2.8287 1.2982,-4.37367c0.17669,1.55588 0.66315,3.02044 1.3885,4.33644c2.08855,3.78925 6.1577,6.34691 10.51547,6.30696c3.46178,-0.03173 8.18959,-0.02167 12.34683,-0.01282c1.77178,0.00376 3.43991,0.00732 4.86224,0.00732c2.85067,0.09158 8.65805,-0.96085 11.46924,-6.92552c0.35478,-0.75274 0.66183,-1.58371 0.9092,-2.5005c0.63646,0.63772 1.29498,1.25038 1.97341,1.83749c11.06187,9.57291 27.41668,12.3498 39.74006,6.08474c2.28585,2.08681 4.45572,3.20665 8.3554,3.43008c4.36692,0.25019 9.15055,0.53728 14.22985,0.89793c1.94073,0.13779 4.39409,-0.30539 6.5745,-1.55239c1.48137,1.26709 4.14188,2.33898 5.80608,2.48869c0.37253,0.03352 0.81408,0.07301 1.31238,0.11757c3.43946,0.30761 9.58281,0.85704 14.39314,1.35105c5.50725,0.56558 9.86234,-2.51 11.72743,-5.73876c2.43361,-4.21294 13.56162,-23.47972 18.67937,-32.36128c2.0881,-3.62378 1.87217,-7.61105 1.45741,-9.55515c-1.46533,-6.86853 -8.98864,-41.79197 -11.79506,-54.71318c-1.69318,-7.79568 -7.79137,-10.4915 -11.56918,-11.03063c-3.77781,-0.53913 -11.53665,-1.45395 -16.60514,-2.00534c-2.69054,-0.2927 -5.11401,0.06951 -7.68598,1.21829c-2.25413,-1.60818 -4.33597,-2.40674 -7.20125,-2.67048c-3.08255,-0.28374 -7.32924,-0.636 -14.97924,-1.20275c-3.10738,-0.23021 -6.52613,0.5376 -9.4831,2.72957c-15.56029,-8.34131 -29.89605,-5.04365 -35.7986,-2.31611c-2.49662,-1.87419 -5.24153,-2.75098 -8.03714,-2.81856c-34.604,-0.83649 -96.82116,0.48437 -144.01693,7.10829c-5.65668,0.79391 -10.42857,4.97903 -11.74663,11.17157c-1.9129,8.98717 -5.21733,24.38688 -7.9963,37.33779c-1.39712,6.511 -2.66142,12.40307 -3.54932,16.55019c-0.37729,1.76219 -1.14246,5.89209 1.36295,10.33439c2.09121,3.7079 14.9246,25.86401 18.66192,32.30862c1.7676,3.04806 6.02971,6.31228 11.67831,5.72656c4.20739,-0.43628 6.86632,-0.69467 15.24035,-1.44167c3.27601,-0.39132 5.93405,-1.72621 7.9676,-4.05984z" fill-rule="evenodd" fill="rgb(255, 255, 255)" fill-opacity="1" style="mix-blend-mode:normal"></path></g></g></g></g></g><g id="lz2o6qmp73824234_translate"><g transform="matrix(1,0,0,1,172.21,14.56)"><g id="lz2o6qmp73824234" opacity="1" style="mix-blend-mode:normal"><g><g><g style="mix-blend-mode:normal"><defs><linearGradient id="lz2o6qmp73824234pf0" x1="0" y1="0.5" x2="1" y2="0.5" gradientTransform="matrix(0,1.0694770575040664,1.1506222415289382,0,-0.07543653231048583,-0.000006028523461213935)" gradientUnits="objectBoundingBox"><stop offset="0%" stop-opacity="1" stop-color="rgb(252, 211, 77)"></stop><stop offset="100%" stop-opacity="1" stop-color="rgb(245, 158, 11)"></stop></linearGradient></defs><path id="lz2o6qmp73824234_fill_path" d="M16.39329,53.43065c4.36722,2.6419 9.04444,4.09763 14.04517,4.35374c4.94682,0.2561 9.28708,-0.71439 13.0073,-2.93844c3.76066,-2.21057 6.55082,-5.43206 8.35701,-9.63753c1.79272,-4.25938 2.34535,-9.21968 1.65792,-14.86741c-0.68743,-5.64773 -2.48015,-10.72933 -5.35119,-15.23134c-2.87104,-4.50201 -6.49689,-8.07396 -10.85063,-10.71585c-4.3133,-2.6419 -8.95011,-4.08416 -13.89693,-4.35374c-5.00073,-0.2561 -9.38142,0.71439 -13.14208,2.92496c-3.72022,2.22405 -6.48343,5.45902 -8.27614,9.7184c-1.79272,4.25938 -2.34536,9.21968 -1.65793,14.8674c0.68743,5.64773 2.48015,10.72933 5.35119,15.23134c2.87104,4.44809 6.45647,7.99308 10.76977,10.63498zM34.83265,37.48492c-1.57705,1.91403 -3.76067,2.79017 -6.56432,2.6419c-2.80364,-0.14827 -5.25682,-1.26703 -7.37303,-3.38324c-2.07578,-2.10273 -3.31585,-4.86594 -3.73371,-8.3031c-0.41785,-3.43716 0.16175,-6.10601 1.72532,-8.02004c1.57705,-1.91403 3.78761,-2.79017 6.64517,-2.6419c2.80364,0.14827 5.24337,1.26703 7.30567,3.36977c2.0623,2.10273 3.31583,4.86594 3.73369,8.3031c0.41785,3.43716 -0.16174,6.10601 -1.73879,8.02004z" fill-rule="evenodd" fill="url(#lz2o6qmp73824234pf0)"></path></g></g></g></g></g></g><g id="lz2o6qmt72411360_translate"><g transform="matrix(1,0,0,1,223.2,17.12)"><g id="lz2o6qmt72411360" opacity="1" style="mix-blend-mode:normal"><g><g><g style="mix-blend-mode:normal"><defs><linearGradient id="lz2o6qmt72411360pf0" x1="0" y1="0.5" x2="1" y2="0.5" gradientTransform="matrix(0,1.0439135558366472,1.0802919538828097,0,-0.040263714821019425,-0.04323094443622767)" gradientUnits="objectBoundingBox"><stop offset="0%" stop-opacity="1" stop-color="rgb(252, 211, 77)"></stop><stop offset="100%" stop-opacity="1" stop-color="rgb(245, 158, 11)"></stop></linearGradient></defs><path id="lz2o6qmt72411360_fill_path" d="M15.01568,1.19964c-7.38653,-0.66047 -15.01568,-1.19964 -15.01568,-1.19964l7.33261,55.34502c0,0 8.66705,0.48525 16.86232,1.06485l-3.89545,-24.141l19.39637,25.34063c0,0 8.15482,0.66047 17.54973,1.63097l-11.79418,-54.71151c-7.77742,-1.03789 -16.20182,-1.94099 -16.20182,-1.94099l4.1785,22.24045l-18.39891,-23.62879z" fill-rule="nonzero" fill="url(#lz2o6qmt72411360pf0)"></path></g></g></g></g></g></g><g id="lz2o6qmu10122977_translate"><g transform="matrix(1,0,0,1,127.79,14.58)"><g id="lz2o6qmu10122977" opacity="1" style="mix-blend-mode:normal"><g><g><g style="mix-blend-mode:normal"><defs><linearGradient id="lz2o6qmu10122977pf0" x1="0" y1="0.5" x2="1" y2="0.5" gradientTransform="matrix(0,1.1100000006616115,1.4244023288342882,0,-0.21235640588618598,-0.00016129031772443633)" gradientUnits="objectBoundingBox"><stop offset="0%" stop-opacity="1" stop-color="rgb(252, 211, 77)"></stop><stop offset="100%" stop-opacity="1" stop-color="rgb(245, 158, 11)"></stop></linearGradient></defs><path id="lz2o6qmu10122977_fill_path" d="M12.10419,15.42454c-5.99818,0.04044 -12.10419,0.16175 -12.10419,0.16175l0.5796,-15.40657c0,0 20.48817,-0.40437 42.24338,0l0.59308,15.42005c-6.34864,-0.12131 -12.58945,-0.16175 -12.58945,-0.16175l0.74135,40.27543c-10.27105,-0.0674 -20.07032,0 -20.07032,0l0.60655,-40.27543z" fill-rule="nonzero" fill="url(#lz2o6qmu10122977pf0)"></path></g></g></g></g></g></g><g id="lz2o6qmw54142291_translate"><g transform="matrix(1,0,0,1,83.19,14.78)"><g id="lz2o6qmw54142291" opacity="1" style="mix-blend-mode:normal"><g><g><g style="mix-blend-mode:normal"><defs><linearGradient id="lz2o6qmw54142291pf0" x1="0" y1="0.5" x2="1" y2="0.5" gradientTransform="matrix(0,1.0947268085923823,1.4292835358061713,0,-0.2146417466051013,-0.00405631129782737)" gradientUnits="objectBoundingBox"><stop offset="0%" stop-opacity="1" stop-color="rgb(252, 211, 77)"></stop><stop offset="100%" stop-opacity="1" stop-color="rgb(245, 158, 11)"></stop></linearGradient></defs><path id="lz2o6qmw54142291_fill_path" d="M0,17.09145c0,0 5.93079,-0.37741 12.88599,-0.70091l-3.63935,40.10021c0,0 8.90966,-0.33698 19.03244,-0.59308l2.41275,-40.20804c0,0 5.97122,-0.17523 12.02332,-0.29654l0.55264,-15.39309c-21.29692,0.39089 -41.50203,1.63097 -41.50203,1.63097l-1.76576,15.447z" fill-rule="nonzero" fill="url(#lz2o6qmw54142291pf0)"></path></g></g></g></g></g></g><g id="lz2o6qmy69428325_translate"><g transform="matrix(1,0,0,1,58.03,16.56)"><g id="lz2o6qmy69428325" opacity="1" style="mix-blend-mode:normal"><g><g><g style="mix-blend-mode:normal"><defs><linearGradient id="lz2o6qmy69428325pf0" x1="0" y1="0.5" x2="1" y2="0.5" gradientTransform="matrix(0,1.0949880970445753,2.4626945189128673,0,-0.7310788942369477,-0.03556085844865086)" gradientUnits="objectBoundingBox"><stop offset="0%" stop-opacity="1" stop-color="rgb(252, 211, 77)"></stop><stop offset="100%" stop-opacity="1" stop-color="rgb(245, 158, 11)"></stop></linearGradient></defs><path id="lz2o6qmy69428325_fill_path" d="M8.20875,1.21312c0,0 7.97961,-0.66047 16.90274,-1.21312l-6.59126,55.4259c-9.54318,0.45829 -18.52023,1.05137 -18.52023,1.05137z" fill-rule="nonzero" fill="url(#lz2o6qmy69428325pf0)"></path></g></g></g></g></g></g><g id="lz2o6qmz79541525_translate"><g transform="matrix(1,0,0,1,17.2548,17.9392)"><g id="lz2o6qmz79541525" opacity="1" style="mix-blend-mode:normal"><g><g><g style="mix-blend-mode:normal"><defs><linearGradient id="lz2o6qmz79541525pf0" x1="0" y1="0.5" x2="1" y2="0.5" gradientTransform="matrix(0,1.0578741184469571,1.31461320647013,0,-0.15730659344043332,-0.05787410662429256)" gradientUnits="objectBoundingBox"><stop offset="0%" stop-opacity="1" stop-color="rgb(252, 211, 77)"></stop><stop offset="100%" stop-opacity="1" stop-color="rgb(245, 158, 11)"></stop></linearGradient></defs><path id="lz2o6qmz79541525_fill_path" d="M47.04193,0.01348c-18.23717,1.45574 -35.31514,3.76066 -35.31514,3.76066l-11.72678,54.68455c0,0 8.10092,-0.84918 17.64409,-1.64445l3.85501,-20.63644c0,0 7.57523,-0.78179 15.28526,-1.4153l2.23752,-13.72168c-8.15483,0.70091 -14.97524,1.42878 -14.97524,1.42878l1.01093,-5.17596c0,0 9.01749,-0.99745 19.58507,-1.84663l2.38579,-15.447z" fill-rule="nonzero" fill="url(#lz2o6qmz79541525pf0)"></path></g></g></g></g></g></g></g></g></g></g></g></g></g></g></g></g><animateTransform href="#lz2o6qmp73824234_translate" attributeName="transform" type="translate" values="0 0;0 0;0 -19.082085;0 0;0.004199999999997317 0.002600000000001046;0.004199999999997317 -19.079485;0.004199999999997317 0.002600000000001046;0.004199999999997317 0.002600000000001046" dur="4.1s" repeatCount="indefinite" calcMode="spline" keyTimes="0;0.2;0.27;0.34;0.51;0.56;0.61;1" keySplines="0 0 1 1;0 0 0.35 1;0.65 0 1 1;0 0 1 1;0 0 0.35 1;0 0 0 1;0 0 0 1" additive="sum" fill="freeze"></animateTransform><animateTransform href="#lz2o6qmp73824234" attributeName="transform" type="translate" values="26.8733 28.9123;26.8733 28.9123;26.8733 28.9123;26.8733 28.9123" dur="4.1s" repeatCount="indefinite" calcMode="spline" keyTimes="0;0.2;0.24;1" keySplines="0.5 0.35 0.15 1;0.5 0.35 0.15 1;0.5 0.35 0.15 1" additive="sum" fill="freeze"></animateTransform><animateTransform href="#lz2o6qmp73824234" attributeName="transform" type="scale" values="0 0;0 0;1 1;1 1" dur="4.1s" repeatCount="indefinite" calcMode="spline" keyTimes="0;0.2;0.24;1" keySplines="0.5 0.35 0.15 1;0.5 0.35 0.15 1;0.5 0.35 0.15 1" additive="sum" fill="freeze"></animateTransform><animateTransform href="#lz2o6qmp73824234" attributeName="transform" type="translate" values="-26.8733 -28.9123;-26.8733 -28.9123;-26.8733 -28.9123;-26.8733 -28.9123" dur="4.1s" repeatCount="indefinite" calcMode="spline" keyTimes="0;0.2;0.24;1" keySplines="0.5 0.35 0.15 1;0.5 0.35 0.15 1;0.5 0.35 0.15 1" additive="sum" fill="freeze"></animateTransform><animate href="#lz2o6qmp73824234" attributeName="opacity" values="1;1;0;0" dur="4.1s" repeatCount="indefinite" calcMode="spline" keyTimes="0;0.56;0.61;1" keySplines="0.5 0 0.5 1;0.5 0 0.5 1;0.5 0 0.5 1" additive="replace" fill="freeze"></animate><animateTransform href="#lz2o6qmt72411360_translate" attributeName="transform" type="translate" values="0 0;0 0;0 -19.549365;0 0;-0.0007000000000232376 0.002100000000002211;-0.0007000000000232376 -19.547265;-0.0007000000000232376 0.002100000000002211;-0.0007000000000232376 0.002100000000002211" dur="4.1s" repeatCount="indefinite" calcMode="spline" keyTimes="0;0.24;0.32;0.39;0.41;0.46;0.51;1" keySplines="0 0 1 1;0 0 0.35 1;0.65 0 1 1;0 0 1 1;0 0 0.35 1;0 0 0 1;0 0 0 1" additive="sum" fill="freeze"></animateTransform><animateTransform href="#lz2o6qmt72411360" attributeName="transform" type="translate" values="28.6228 29.6203;28.6228 29.6203;28.6228 29.6203;28.6228 29.6203" dur="4.1s" repeatCount="indefinite" calcMode="spline" keyTimes="0;0.24;0.29;1" keySplines="0.5 0.35 0.15 1;0.5 0.35 0.15 1;0.5 0.35 0.15 1" additive="sum" fill="freeze"></animateTransform><animateTransform href="#lz2o6qmt72411360" attributeName="transform" type="scale" values="0 0;0 0;1 1;1 1" dur="4.1s" repeatCount="indefinite" calcMode="spline" keyTimes="0;0.24;0.29;1" keySplines="0.5 0.35 0.15 1;0.5 0.35 0.15 1;0.5 0.35 0.15 1" additive="sum" fill="freeze"></animateTransform><animateTransform href="#lz2o6qmt72411360" attributeName="transform" type="translate" values="-28.6228 -29.6203;-28.6228 -29.6203;-28.6228 -29.6203;-28.6228 -29.6203" dur="4.1s" repeatCount="indefinite" calcMode="spline" keyTimes="0;0.24;0.29;1" keySplines="0.5 0.35 0.15 1;0.5 0.35 0.15 1;0.5 0.35 0.15 1" additive="sum" fill="freeze"></animateTransform><animate href="#lz2o6qmt72411360" attributeName="opacity" values="1;1;0;0" dur="4.1s" repeatCount="indefinite" calcMode="spline" keyTimes="0;0.46;0.51;1" keySplines="0.5 0 0.5 1;0.5 0 0.5 1;0.5 0 0.5 1" additive="replace" fill="freeze"></animate><animateTransform href="#lz2o6qmu10122977_translate" attributeName="transform" type="translate" values="0 0;0 0;0 -18.385455;0 0;-0.004599999999996385 0.0007999999999999119;-0.004599999999996385 -18.384655000000002;-0.004599999999996385 0.0007999999999999119;-0.004599999999996385 0.0007999999999999119" dur="4.1s" repeatCount="indefinite" calcMode="spline" keyTimes="0;0.15;0.22;0.29;0.61;0.66;0.71;1" keySplines="0 0 1 1;0 0 0.35 1;0.65 0 1 1;0 0 1 1;0 0 0.35 1;0.65 0 1 1;0 0 1 1" additive="sum" fill="freeze"></animateTransform><animateTransform href="#lz2o6qmu10122977" attributeName="transform" type="translate" values="21.7081 27.8568;21.7081 27.8568;21.7081 27.8568;21.7081 27.8568" dur="4.1s" repeatCount="indefinite" calcMode="spline" keyTimes="0;0.15;0.2;1" keySplines="0.5 0.35 0.15 1;0.5 0.35 0.15 1;0.5 0.35 0.15 1" additive="sum" fill="freeze"></animateTransform><animateTransform href="#lz2o6qmu10122977" attributeName="transform" type="scale" values="0 0;0 0;1 1;1 1" dur="4.1s" repeatCount="indefinite" calcMode="spline" keyTimes="0;0.15;0.2;1" keySplines="0.5 0.35 0.15 1;0.5 0.35 0.15 1;0.5 0.35 0.15 1" additive="sum" fill="freeze"></animateTransform><animateTransform href="#lz2o6qmu10122977" attributeName="transform" type="translate" values="-21.7081 -27.8568;-21.7081 -27.8568;-21.7081 -27.8568;-21.7081 -27.8568" dur="4.1s" repeatCount="indefinite" calcMode="spline" keyTimes="0;0.15;0.2;1" keySplines="0.5 0.35 0.15 1;0.5 0.35 0.15 1;0.5 0.35 0.15 1" additive="sum" fill="freeze"></animateTransform><animate href="#lz2o6qmu10122977" attributeName="opacity" values="1;1;0;0" dur="4.1s" repeatCount="indefinite" calcMode="spline" keyTimes="0;0.66;0.71;1" keySplines="0.5 0 0.5 1;0.5 0 0.5 1;0.5 0 0.5 1" additive="replace" fill="freeze"></animate><animateTransform href="#lz2o6qmw54142291_translate" attributeName="transform" type="translate" values="0 0;0 0;0 -18.641964;0 0;-0.003900000000001569 -0.0045999999999999375;-0.003900000000001569 -18.646564;-0.003900000000001569 -0.0045999999999999375;-0.003900000000001569 -0.0045999999999999375" dur="4.1s" repeatCount="indefinite" calcMode="spline" keyTimes="0;0.1;0.17;0.24;0.71;0.76;0.8;1" keySplines="0 0 1 1;0 0 0.35 1;0.65 0 1 1;0 0 1 1;0 0 0.35 1;0.65 0 1 1;0 0 1 1" additive="sum" fill="freeze"></animateTransform><animateTransform href="#lz2o6qmw54142291" attributeName="transform" type="translate" values="21.6339 28.2454;21.6339 28.2454;21.6339 28.2454;21.6339 28.2454" dur="4.1s" repeatCount="indefinite" calcMode="spline" keyTimes="0;0.1;0.15;1" keySplines="0.5 0.35 0.15 1;0.5 0.35 0.15 1;0.5 0.35 0.15 1" additive="sum" fill="freeze"></animateTransform><animateTransform href="#lz2o6qmw54142291" attributeName="transform" type="scale" values="0 0;0 0;1 1;1 1" dur="4.1s" repeatCount="indefinite" calcMode="spline" keyTimes="0;0.1;0.15;1" keySplines="0.5 0.35 0.15 1;0.5 0.35 0.15 1;0.5 0.35 0.15 1" additive="sum" fill="freeze"></animateTransform><animateTransform href="#lz2o6qmw54142291" attributeName="transform" type="translate" values="-21.6339 -28.2454;-21.6339 -28.2454;-21.6339 -28.2454;-21.6339 -28.2454" dur="4.1s" repeatCount="indefinite" calcMode="spline" keyTimes="0;0.1;0.15;1" keySplines="0.5 0.35 0.15 1;0.5 0.35 0.15 1;0.5 0.35 0.15 1" additive="sum" fill="freeze"></animateTransform><animate href="#lz2o6qmw54142291" attributeName="opacity" values="1;1;0;0" dur="4.1s" repeatCount="indefinite" calcMode="spline" keyTimes="0;0.76;0.8;1" keySplines="0.5 0 0.5 1;0.5 0 0.5 1;0.5 0 0.5 1" additive="replace" fill="freeze"></animate><animateTransform href="#lz2o6qmy69428325_translate" attributeName="transform" type="translate" values="0 0;0 0;0 -18.637509;0 0;0.0029000000000038995 -0.004900000000002791;0.0029000000000038995 -18.642409000000004;0.0029000000000038995 -0.004900000000002791;0.0029000000000038995 -0.004900000000002791" dur="4.1s" repeatCount="indefinite" calcMode="spline" keyTimes="0;0.05;0.12;0.2;0.8;0.85;0.9;1" keySplines="0 0 1 1;0 0 0.35 1;0.65 0 1 1;0 0 1 1;0 0 0.35 1;0.65 0 1 1;0 0 1 1" additive="sum" fill="freeze"></animateTransform><animateTransform href="#lz2o6qmy69428325" attributeName="transform" type="translate" values="12.5558 28.2387;12.5558 28.2387;12.5558 28.2387;12.5558 28.2387" dur="4.1s" repeatCount="indefinite" calcMode="spline" keyTimes="0;0.05;0.1;1" keySplines="0.5 0.35 0.15 1;0.5 0.35 0.15 1;0.5 0.35 0.15 1" additive="sum" fill="freeze"></animateTransform><animateTransform href="#lz2o6qmy69428325" attributeName="transform" type="scale" values="0 0;0 0;1 1;1 1" dur="4.1s" repeatCount="indefinite" calcMode="spline" keyTimes="0;0.05;0.1;1" keySplines="0.5 0.35 0.15 1;0.5 0.35 0.15 1;0.5 0.35 0.15 1" additive="sum" fill="freeze"></animateTransform><animateTransform href="#lz2o6qmy69428325" attributeName="transform" type="translate" values="-12.5558 -28.2387;-12.5558 -28.2387;-12.5558 -28.2387;-12.5558 -28.2387" dur="4.1s" repeatCount="indefinite" calcMode="spline" keyTimes="0;0.05;0.1;1" keySplines="0.5 0.35 0.15 1;0.5 0.35 0.15 1;0.5 0.35 0.15 1" additive="sum" fill="freeze"></animateTransform><animate href="#lz2o6qmy69428325" attributeName="opacity" values="1;1;0;0" dur="4.1s" repeatCount="indefinite" calcMode="spline" keyTimes="0;0.85;0.9;1" keySplines="0.5 0 0.5 1;0.5 0 0.5 1;0.5 0 0.5 1" additive="replace" fill="freeze"></animate><animateTransform href="#lz2o6qmz79541525_translate" attributeName="transform" type="translate" values="0 0;0 -19.291371;0 0;-0.004799999999999471 0.0008000000000016882;-0.004799999999999471 -19.290571;-0.004799999999999471 0.0008000000000016882" dur="4.1s" repeatCount="indefinite" calcMode="spline" keyTimes="0;0.07;0.15;0.9;0.95;1" keySplines="0 0 0.35 1;0.65 0 1 1;0 0 1 1;0 0 0.35 1;0.65 0 1 1" additive="sum" fill="freeze"></animateTransform><animateTransform href="#lz2o6qmz79541525" attributeName="transform" type="translate" values="23.521 29.2294;23.521 29.2294;23.521 29.2294" dur="4.1s" repeatCount="indefinite" calcMode="spline" keyTimes="0;0.05;1" keySplines="0.5 0.35 0.15 1;0.5 0.35 0.15 1" additive="sum" fill="freeze"></animateTransform><animateTransform href="#lz2o6qmz79541525" attributeName="transform" type="scale" values="0 0;1 1;1 1" dur="4.1s" repeatCount="indefinite" calcMode="spline" keyTimes="0;0.05;1" keySplines="0.5 0.35 0.15 1;0.5 0.35 0.15 1" additive="sum" fill="freeze"></animateTransform><animateTransform href="#lz2o6qmz79541525" attributeName="transform" type="translate" values="-23.521 -29.2294;-23.521 -29.2294;-23.521 -29.2294" dur="4.1s" repeatCount="indefinite" calcMode="spline" keyTimes="0;0.05;1" keySplines="0.5 0.35 0.15 1;0.5 0.35 0.15 1" additive="sum" fill="freeze"></animateTransform><animate href="#lz2o6qmz79541525" attributeName="opacity" values="1;1;0;0" dur="4.1s" repeatCount="indefinite" calcMode="spline" keyTimes="0;0.95;1;1" keySplines="0.5 0 0.5 1;0.5 0 0.5 1;0.5 0 0.5 1" additive="replace" fill="freeze"></animate></svg>